<?xml version="1.0" standalone="no"?>
<!DOCTYPE svg PUBLIC "-//W3C//DTD SVG 20010904//EN"
 "http://www.w3.org/TR/2001/REC-SVG-20010904/DTD/svg10.dtd">
<svg version="1.0" xmlns="http://www.w3.org/2000/svg"
 width="260.000000pt" height="260.000000pt" viewBox="0 0 260.000000 260.000000"
 preserveAspectRatio="xMidYMid meet">
<metadata>
Created by potrace 1.14, written by Peter Selinger 2001-2017
</metadata>
<g transform="translate(0.000000,260.000000) scale(0.100000,-0.100000)"
fill="#000000" stroke="none">
<path d="M284 2585 c-114 -36 -197 -107 -248 -215 l-31 -65 0 -1005 0 -1005
32 -67 c39 -84 108 -152 193 -192 l65 -31 1005 0 1005 0 69 34 c78 38 144 99
176 161 52 101 50 64 47 1120 l-2 985 -34 69 c-43 88 -104 149 -189 189 l-67
32 -990 2 c-782 1 -999 -2 -1031 -12z m2073 -70 c85 -42 139 -101 173 -191 20
-56 20 -62 18 -1043 l-3 -986 -24 -48 c-32 -65 -95 -129 -161 -163 l-55 -29
-990 -2 c-1095 -2 -1032 -6 -1125 62 -59 43 -104 107 -124 176 -15 50 -16 159
-14 1030 l3 974 33 67 c43 88 127 157 217 179 17 4 468 7 1004 8 l974 1 74
-35z"/>
<path d="M505 2513 c-85 -10 -193 -37 -234 -58 -52 -26 -83 -57 -132 -130 -74
-110 -88 -185 -34 -185 14 0 25 4 25 8 0 21 85 92 142 120 64 30 172 69 218
77 14 2 58 11 97 18 40 8 74 12 76 10 2 -2 -38 -88 -88 -191 -81 -162 -122
-251 -205 -437 -29 -66 -106 -265 -129 -335 -53 -162 -67 -296 -41 -376 12
-35 60 -83 109 -109 101 -52 289 -72 463 -49 445 58 710 267 710 560 l0 82 71
11 c71 10 101 14 222 26 125 13 152 16 207 26 99 17 107 19 134 29 26 10 26
10 -7 -32 -19 -24 -40 -50 -49 -58 -8 -8 -66 -71 -129 -140 -139 -151 -851
-864 -1083 -1084 -108 -102 -165 -163 -161 -172 4 -11 32 -14 132 -14 l127 0
122 140 c145 165 197 222 316 347 l89 93 239 0 240 0 -5 -23 c-23 -92 -25
-282 -3 -380 27 -122 87 -183 191 -194 120 -14 333 78 318 137 -9 35 -29 43
-62 26 -46 -24 -79 -20 -111 14 -37 40 -52 104 -51 225 2 178 44 427 127 748
49 190 126 388 168 430 10 9 16 25 14 35 -3 15 -17 17 -105 19 -56 0 -118 -3
-138 -7 -22 -5 -35 -4 -35 2 0 7 -120 9 -357 5 -365 -5 -389 -7 -481 -33 -51
-14 -53 -14 -89 11 -21 14 -41 25 -44 25 -4 0 -24 7 -45 16 l-39 16 52 20
c124 46 261 179 294 285 17 55 20 174 6 214 -42 117 -125 187 -262 223 -49 13
-122 15 -410 14 -192 -1 -363 -3 -380 -5z m600 -123 c109 -21 174 -86 179
-176 7 -115 -37 -216 -131 -305 -96 -89 -107 -93 -255 -94 -123 -1 -127 -2
-176 -32 l-51 -31 19 41 c136 314 268 564 317 604 8 6 20 10 26 8 7 -2 39 -8
72 -15z m-60 -709 c47 -21 65 -40 97 -101 19 -37 23 -62 25 -135 3 -230 -128
-383 -368 -428 -89 -17 -234 -16 -277 2 -72 30 -64 132 34 431 69 211 94 264
106 228 6 -17 92 -16 198 2 126 23 138 23 185 1z m1024 -408 c-6 -16 -10 -29
-9 -31 1 -1 -12 -60 -29 -130 -16 -70 -36 -156 -44 -192 l-13 -65 -179 -1
-178 -2 224 224 c123 123 227 224 231 224 4 0 3 -12 -3 -27z"/>
<path d="M2169 2392 c-16 -13 -41 -44 -55 -68 -14 -25 -31 -44 -38 -43 -30 4
-46 -3 -57 -23 -10 -18 -8 -24 11 -38 l23 -17 -27 -45 c-26 -44 -35 -98 -16
-98 5 0 7 -14 5 -32 -5 -38 19 -98 39 -99 9 -1 22 -2 29 -3 37 -6 100 48 152
129 36 55 44 83 32 103 -16 25 -43 11 -72 -39 -16 -28 -38 -58 -47 -66 -17
-15 -18 -15 -18 3 0 10 11 48 23 84 22 62 24 65 62 71 50 8 72 35 48 61 -9 10
-23 16 -30 14 -26 -11 -4 41 39 88 42 46 -51 63 -103 18z"/>
<path d="M618 741 c-20 -10 -45 -36 -63 -68 -24 -41 -35 -52 -55 -53 -45 0
-66 -41 -34 -64 14 -11 13 -18 -12 -69 -24 -48 -26 -61 -16 -77 6 -11 12 -40
12 -64 0 -78 54 -106 120 -62 69 45 152 175 133 205 -19 30 -40 23 -71 -26
-78 -121 -91 -111 -40 30 19 53 23 57 53 57 19 0 39 8 50 20 17 19 17 21 1 39
-10 11 -24 17 -32 14 -23 -9 -16 13 22 62 26 35 32 50 24 60 -14 17 -53 16
-92 -4z"/>
</g>
</svg>
