<?xml version="1.0" encoding="UTF-8" standalone="no"?>
<!-- Created with Inkscape (http://www.inkscape.org/) -->

<svg
   width="101.34531mm"
   height="99.180222mm"
   viewBox="0 0 101.34531 99.180223"
   version="1.1"
   id="svg5"
   inkscape:version="1.1.2 (b8e25be833, 2022-02-05)"
   sodipodi:docname="drawing.svg"
   xmlns:inkscape="http://www.inkscape.org/namespaces/inkscape"
   xmlns:sodipodi="http://sodipodi.sourceforge.net/DTD/sodipodi-0.dtd"
   xmlns="http://www.w3.org/2000/svg"
   xmlns:svg="http://www.w3.org/2000/svg">
  <sodipodi:namedview
     id="namedview7"
     pagecolor="#ffffff"
     bordercolor="#666666"
     borderopacity="1.0"
     inkscape:pageshadow="2"
     inkscape:pageopacity="0.0"
     inkscape:pagecheckerboard="true"
     inkscape:document-units="mm"
     showgrid="false"
     fit-margin-top="0"
     fit-margin-left="0"
     fit-margin-right="0"
     fit-margin-bottom="0"
     inkscape:zoom="0.733172"
     inkscape:cx="169.81009"
     inkscape:cy="223.68558"
     inkscape:window-width="1920"
     inkscape:window-height="1009"
     inkscape:window-x="-8"
     inkscape:window-y="-8"
     inkscape:window-maximized="1"
     inkscape:current-layer="g202" />
  <defs
     id="defs2">
    <clipPath
       clipPathUnits="userSpaceOnUse"
       id="clipPath1036">
      <rect
         style="fill:#0000ff;fill-rule:evenodd;stroke-width:1.68283"
         id="rect1038"
         width="661.03741"
         height="644.97058"
         x="172.14517"
         y="174.44044" />
    </clipPath>
  </defs>
  <g
     inkscape:label="Layer 1"
     inkscape:groupmode="layer"
     id="layer1"
     transform="translate(-59.929292,-89.40732)">
    <g
       id="g202"
       transform="matrix(0.15722552,0,0,0.15722552,35.690153,65.890088)">
      <g
         id="g930"
         transform="translate(-34.429034,-39.019572)"
         clip-path="url(#clipPath1036)">
        <path
           style="opacity:1;fill:#000000;fill-rule:nonzero;stroke:none;stroke-width:0;stroke-linecap:butt;stroke-linejoin:miter;stroke-miterlimit:4;stroke-dasharray:none;stroke-dashoffset:0"
           vector-effect="non-scaling-stroke"
           d="M 67.5,135 C 104.779,135 135,104.779 135,67.5 135,30.22 104.779,0 67.5,0 30.22,0 0,30.22 0,67.5 0,104.779 30.22,135 67.5,135 Z"
           id="path11"
           transform="matrix(4.606,0,0,4.606,188.597,188.596)" />
        <g
           transform="matrix(2.7305,-2.6678,2.531,2.5905,394.924,391.505)"
           clip-path="url(#a)"
           id="g18">
    <clipPath
   id="a">
      <rect
   x="-78.5"
   y="-78.5"
   rx="0"
   ry="0"
   width="157"
   height="157"
   id="rect13" />

    </clipPath>

    <path
   style="opacity:1;fill:#002d72;fill-rule:nonzero;stroke:none;stroke-width:0;stroke-linecap:butt;stroke-linejoin:miter;stroke-miterlimit:4;stroke-dasharray:none;stroke-dashoffset:0"
   vector-effect="non-scaling-stroke"
   transform="translate(-78.5,-78.5)"
   d="M 78.526,37.606 C 35.172,37.592 0.015,72.726 0,116.08 a 3.245,3.245 0 0 0 3.313,3.313 H 153.754 A 3.312,3.312 0 0 0 157,116.08 C 156.986,72.746 121.86,37.62 78.526,37.606 Z"
   id="path16" />

  </g>
        <g
           transform="matrix(-2.761,2.6885,-2.643,-2.7143,602.929,603.837)"
           clip-path="url(#b)"
           id="g32">
    <filter
   id="c"
   y="0"
   height="1"
   x="0"
   width="1">
      <feMerge
   id="feMerge24">
        <feMergeNode
   id="feMergeNode20" />

        <feMergeNode
   in="SourceGraphic"
   id="feMergeNode22" />

      </feMerge>

    </filter>

    <clipPath
   id="b">
      <rect
   x="-78.5"
   y="-78.5"
   rx="0"
   ry="0"
   width="157"
   height="157"
   id="rect27" />

    </clipPath>

    <path
   style="opacity:1;fill:#d50032;fill-rule:nonzero;stroke:none;stroke-width:0;stroke-linecap:butt;stroke-linejoin:miter;stroke-miterlimit:4;stroke-dasharray:none;stroke-dashoffset:0;filter:url(#c)"
   vector-effect="non-scaling-stroke"
   transform="translate(-78.5,-78.5)"
   d="M 78.526,37.606 C 35.172,37.592 0.015,72.726 0,116.08 a 3.245,3.245 0 0 0 3.313,3.313 H 153.754 A 3.312,3.312 0 0 0 157,116.08 C 156.986,72.746 121.86,37.62 78.526,37.606 Z"
   id="path30" />

  </g>
        <path
           style="opacity:1;fill:#000000;fill-rule:nonzero;stroke:none;stroke-width:0;stroke-linecap:butt;stroke-linejoin:miter;stroke-miterlimit:4;stroke-dasharray:none;stroke-dashoffset:0"
           vector-effect="non-scaling-stroke"
           d="m 4.113,15.87 c 1.291,-0.373 2.687,-0.522 4.014,-0.672 0.768,-0.074 1.5,-0.112 2.269,-0.15 a 47.376,47.376 0 0 1 3.28,-0.111 c 2.095,-0.037 4.154,-0.075 6.248,-0.075 4.154,0 8.308,-0.037 12.496,-0.261 l 12.95,-0.672 c 4.084,-0.225 8.168,-0.449 12.286,-0.598 4.084,-0.187 8.203,-0.336 12.287,-0.597 4.188,-0.3 8.377,-0.448 12.565,-0.56 1.99,-0.075 3.98,-0.15 5.97,-0.374 1.046,-0.112 2.059,-0.261 3.106,-0.41 1.012,-0.15 2.024,-0.225 3.036,-0.337 0.943,-0.112 1.85,-0.074 2.793,0 0.663,-0.074 1.186,-0.448 1.535,-1.083 0.175,-0.41 0.384,-0.784 0.559,-1.195 a 9.27,9.27 0 0 0 0.489,-3.248 c 0,-1.12 -0.14,-2.204 -0.489,-3.25 C 99.332,1.867 99.123,1.494 98.948,1.083 98.6,0.448 98.111,0.112 97.413,0 96.889,0.037 96.4,0.112 95.877,0.15 c -0.454,0.037 -0.942,0.037 -1.396,0.037 -1.012,0 -1.99,0.037 -3.002,0.074 -2.094,0.075 -4.154,0.224 -6.248,0.3 -4.049,0.111 -8.098,0.149 -12.112,0.41 -2.164,0.15 -4.328,0.299 -6.492,0.41 -1.955,0.113 -3.944,0.187 -5.899,0.262 -4.189,0.15 -8.377,0.373 -12.566,0.598 L 35.772,2.913 C 33.502,3.025 31.199,3.174 28.93,3.286 26.87,3.398 24.846,3.398 22.787,3.436 18.598,3.473 14.41,3.51 10.221,3.772 9.174,3.846 8.161,3.921 7.149,4.07 6.312,4.182 5.474,4.332 4.671,4.518 4.043,4.668 3.415,4.892 2.821,5.116 2.472,5.228 2.123,5.452 1.809,5.676 1.181,6.199 0.762,6.871 0.518,7.692 c -0.559,1.569 -0.629,3.436 -0.384,5.079 0.14,0.97 0.453,1.904 0.942,2.726 l 0.733,0.784 c 0.559,0.374 1.117,0.374 1.64,0 0.14,-0.15 0.385,-0.299 0.664,-0.41 z"
           id="path34"
           transform="matrix(4.4883,-4.2888,0.9369,0.9804,264.67,702.456)" />
        <g
           transform="translate(338.374,385.855)"
           id="g53">
    <filter
   id="d"
   y="-0.69685438"
   height="2.8095495"
   x="-0.68220157"
   width="2.8990833">
      <feGaussianBlur
   in="SourceAlpha"
   stdDeviation="5"
   id="feGaussianBlur36" />

      <feOffset
   dx="10"
   dy="10"
   result="oBlur"
   id="feOffset38" />

      <feFlood
   flood-color="#000"
   flood-opacity="1"
   id="feFlood40" />

      <feComposite
   in2="oBlur"
   operator="in"
   id="feComposite42" />

      <feMerge
   id="feMerge48">
        <feMergeNode
   id="feMergeNode44" />

        <feMergeNode
   in="SourceGraphic"
   id="feMergeNode46" />

      </feMerge>

    </filter>

    <path
   style="opacity:1;fill:#ffffff;fill-rule:nonzero;stroke:#000000;stroke-width:5;stroke-linecap:butt;stroke-linejoin:miter;stroke-miterlimit:4;stroke-dasharray:none;stroke-dashoffset:0;filter:url(#d)"
   transform="translate(-85.846,-133.327)"
   d="m 80.262,122.728 c -4.92,3.509 -6.544,10.246 -3.499,15.59 3.24,5.701 10.482,7.698 16.183,4.468 l 3.524,-1.997 -15.615,-18.466 z"
   stroke-linecap="round"
   id="path51" />

  </g>
        <g
           transform="translate(460.673,307.024)"
           id="g72">
    <filter
   id="e"
   y="-0.13290387"
   height="1.364108"
   x="-0.10398057"
   width="1.2664177">
      <feGaussianBlur
   in="SourceAlpha"
   stdDeviation="5"
   id="feGaussianBlur55" />

      <feOffset
   dx="10"
   dy="10"
   result="oBlur"
   id="feOffset57" />

      <feFlood
   flood-color="#000"
   flood-opacity="1"
   id="feFlood59" />

      <feComposite
   in2="oBlur"
   operator="in"
   id="feComposite61" />

      <feMerge
   id="feMerge67">
        <feMergeNode
   id="feMergeNode63" />

        <feMergeNode
   in="SourceGraphic"
   id="feMergeNode65" />

      </feMerge>

    </filter>

    <path
   style="opacity:1;fill:#ffffff;fill-rule:nonzero;stroke:#000000;stroke-width:5;stroke-linecap:butt;stroke-linejoin:miter;stroke-miterlimit:4;stroke-dasharray:none;stroke-dashoffset:0;filter:url(#e)"
   transform="translate(-208.145,-54.496)"
   d="m 272.5,40.702 a 23.159,23.159 0 0 0 1.769,-1.121 c 9.825,-6.917 12.205,-20.493 5.286,-30.317 -6.917,-9.858 -20.494,-12.213 -30.327,-5.296 l -116.455,81.848 19.601,23.175 z"
   stroke-linecap="round"
   id="path70" />

  </g>
        <g
           transform="translate(456.644,550.463)"
           id="g91">
    <filter
   id="f"
   y="-0.036024521"
   height="1.0969453"
   x="-0.067941631"
   width="1.1827774">
      <feGaussianBlur
   in="SourceAlpha"
   stdDeviation="5"
   id="feGaussianBlur74" />

      <feOffset
   dx="10"
   dy="10"
   result="oBlur"
   id="feOffset76" />

      <feFlood
   flood-color="#000"
   flood-opacity="1"
   id="feFlood78" />

      <feComposite
   in2="oBlur"
   operator="in"
   id="feComposite80" />

      <feMerge
   id="feMerge86">
        <feMergeNode
   id="feMergeNode82" />

        <feMergeNode
   in="SourceGraphic"
   id="feMergeNode84" />

      </feMerge>

    </filter>

    <path
   style="opacity:1;fill:#ffffff;fill-rule:nonzero;stroke:#000000;stroke-width:5;stroke-linecap:butt;stroke-linejoin:miter;stroke-miterlimit:4;stroke-dasharray:none;stroke-dashoffset:0;filter:url(#f)"
   transform="translate(-204.116,-297.935)"
   d="m 239.387,302.356 40.103,-109.05 c 6.008,-16.338 -0.715,-36.376 -21.722,-44.172 -0.518,-0.211 -11.545,-4.253 -12.041,-4.433 -4.214,-1.56 -12.861,-2.891 -14.461,-2.696 l -65.957,5.506 -37.823,-44.691 c -5.927,-7.032 -16.386,-7.878 -23.385,-1.966 -7.007,5.927 -7.876,16.387 -1.965,23.385 l 43.352,51.253 c 3.662,4.318 9.143,6.301 14.055,5.797 5.18,-0.423 71.033,-5.749 76.139,-6.706 -3.247,1.347 -71.503,20.721 -74.889,21.695 -5.627,1.609 -11.286,0.73 -16.15,-1.689 l 16.109,20.203 c 4.678,5.86 12.626,8.443 21.583,3.881 -2.606,7.079 -16.264,46.298 -16.264,46.298 0,0 -19.415,97.309 -20.471,102.912 l -45.861,97.243 c -5.578,11.839 -0.503,25.966 11.335,31.552 11.733,5.539 25.926,0.603 31.553,-11.334 l 47.145,-99.971 a 24.023,24.023 0 0 0 1.834,-5.685 l 9.151,-48.2 64.27,152.507 c 4.854,12.196 18.642,18.077 30.789,13.253 12.165,-4.84 18.099,-18.627 13.252,-30.775 z"
   stroke-linecap="round"
   id="path89" />

  </g>
        <g
           transform="translate(522.353,353.27)"
           id="g110">
    <filter
   id="g"
   y="-0.18368908"
   height="1.4941319"
   x="-0.18365528"
   width="1.4940292">
      <feGaussianBlur
   in="SourceAlpha"
   stdDeviation="5"
   id="feGaussianBlur93" />

      <feOffset
   dx="10"
   dy="10"
   result="oBlur"
   id="feOffset95" />

      <feFlood
   flood-color="#000"
   flood-opacity="1"
   id="feFlood97" />

      <feComposite
   in2="oBlur"
   operator="in"
   id="feComposite99" />

      <feMerge
   id="feMerge105">
        <feMergeNode
   id="feMergeNode101" />

        <feMergeNode
   in="SourceGraphic"
   id="feMergeNode103" />

      </feMerge>

    </filter>

    <path
   style="opacity:1;fill:#ffffff;fill-rule:nonzero;stroke:#000000;stroke-width:5;stroke-linecap:butt;stroke-linejoin:miter;stroke-miterlimit:4;stroke-dasharray:none;stroke-dashoffset:0;filter:url(#g)"
   transform="translate(-269.825,-100.742)"
   d="m 232.802,87.13 c -7.52,20.43 2.955,43.102 23.401,50.619 20.438,7.536 43.117,-2.955 50.643,-23.4 7.526,-20.43 -2.963,-43.116 -23.401,-50.619 -20.471,-7.52 -43.133,2.938 -50.643,23.4 z"
   stroke-linecap="round"
   id="path108" />

  </g>
        <g
           transform="translate(655.703,405.835)"
           id="g129">
    <filter
   id="h"
   y="-0.35291827"
   height="1.9492284"
   x="-0.35284956"
   width="1.9490437">
      <feGaussianBlur
   in="SourceAlpha"
   stdDeviation="5"
   id="feGaussianBlur112" />

      <feOffset
   dx="10"
   dy="10"
   result="oBlur"
   id="feOffset114" />

      <feFlood
   flood-color="#000"
   flood-opacity="1"
   id="feFlood116" />

      <feComposite
   in2="oBlur"
   operator="in"
   id="feComposite118" />

      <feMerge
   id="feMerge124">
        <feMergeNode
   id="feMergeNode120" />

        <feMergeNode
   in="SourceGraphic"
   id="feMergeNode122" />

      </feMerge>

    </filter>

    <path
   style="opacity:1;fill:#ffffff;fill-rule:nonzero;stroke:#000000;stroke-width:5;stroke-linecap:butt;stroke-linejoin:miter;stroke-miterlimit:4;stroke-dasharray:none;stroke-dashoffset:0;filter:url(#h)"
   transform="translate(-403.175,-153.307)"
   d="m 403.18,132.764 c -11.345,0 -20.552,9.192 -20.552,20.544 0,11.335 9.207,20.542 20.552,20.542 11.343,0 20.542,-9.207 20.542,-20.542 0,-11.351 -9.199,-20.544 -20.542,-20.544 z"
   stroke-linecap="round"
   id="path127" />

  </g>
      </g>
    </g>
  </g>
</svg>
